ffmpeg started on 2016-11-30 at 12:05:59
Report written to "Output/x264/results/ffmpeg/old_town_cross_2160p50fast500k.log"
Command line:
Tools/ffmpeg/ffmpeg -benchmark -y -i Input/y4m/old_town_cross_2160p50.y4m -c:v libx264 -preset fast -b:v 500k -an Output/x264/encoded/old_town_cross_2160p50fast500k.mkv
ffmpeg version N-82227-gdb23fde Copyright (c) 2000-2016 the FFmpeg developers
  built with gcc 5.4.0 (Ubuntu 5.4.0-6ubuntu1~16.04.2) 20160609
  configuration: --prefix=/home/jaroslav/ffmpeg_build --pkg-config-flags=--static --extra-cflags=-I/home/jaroslav/ffmpeg_build/include --extra-ldflags=-L/home/jaroslav/ffmpeg_build/lib --bindir=/home/jaroslav/bin --enable-gpl --enable-libass --enable-libfdk-aac --enable-libfreetype --enable-libmp3lame --enable-libopus --enable-libtheora --enable-libvorbis --enable-libvpx --enable-libx264 --enable-libx265 --enable-nvenc --enable-libmfx --enable-libxvid --enable-libgsm --enable-libopencore-amrnb --enable-version3 --enable-nonfree
  libavutil      55. 35.100 / 55. 35.100
  libavcodec     57. 66.101 / 57. 66.101
  libavformat    57. 57.100 / 57. 57.100
  libavdevice    57.  2.100 / 57.  2.100
  libavfilter     6. 66.100 /  6. 66.100
  libswscale      4.  3.100 /  4.  3.100
  libswresample   2.  4.100 /  2.  4.100
  libpostproc    54.  2.100 / 54.  2.100
Input #0, yuv4mpegpipe, from 'Input/y4m/old_town_cross_2160p50.y4m':
  Duration: 00:00:10.00, start: 0.000000, bitrate: 4976642 kb/s
    Stream #0:0: Video: rawvideo (I420 / 0x30323449), yuv420p(progressive), 3840x2160, SAR 1:1 DAR 16:9, 50 fps, 50 tbr, 50 tbn, 50 tbc
[libx264 @ 0x30e2120] using SAR=1/1
[libx264 @ 0x30e2120] using cpu capabilities: MMX2 SSE2Fast SSSE3 SSE4.2 AVX FMA3 AVX2 LZCNT BMI2
[libx264 @ 0x30e2120] profile High, level 5.2
[libx264 @ 0x30e2120] 264 - core 148 - H.264/MPEG-4 AVC codec - Copyleft 2003-2016 - http://www.videolan.org/x264.html - options: cabac=1 ref=2 deblock=1:0:0 analyse=0x3:0x113 me=hex subme=6 psy=1 psy_rd=1.00:0.00 mixed_ref=1 me_range=16 chroma_me=1 trellis=1 8x8dct=1 cqm=0 deadzone=21,11 fast_pskip=1 chroma_qp_offset=-2 threads=6 lookahead_threads=1 sliced_threads=0 nr=0 decimate=1 interlaced=0 bluray_compat=0 constrained_intra=0 bframes=3 b_pyramid=2 b_adapt=1 b_bias=0 direct=1 weightb=1 open_gop=0 weightp=1 keyint=250 keyint_min=25 scenecut=40 intra_refresh=0 rc_lookahead=30 rc=abr mbtree=1 bitrate=500 ratetol=1.0 qcomp=0.60 qpmin=0 qpmax=69 qpstep=4 ip_ratio=1.40 aq=1:1.00
Output #0, matroska, to 'Output/x264/encoded/old_town_cross_2160p50fast500k.mkv':
  Metadata:
    encoder         : Lavf57.57.100
    Stream #0:0: Video: h264 (libx264) (H264 / 0x34363248), yuv420p, 3840x2160 [SAR 1:1 DAR 16:9], q=-1--1, 500 kb/s, 50 fps, 1k tbn, 50 tbc
    Metadata:
      encoder         : Lavc57.66.101 libx264
    Side data:
      cpb: bitrate max/min/avg: 0/0/500000 buffer size: 0 vbv_delay: -1
Stream mapping:
  Stream #0:0 -> #0:0 (rawvideo (native) -> h264 (libx264))
Press [q] to stop, [?] for help
frame=   37 fps= 20 q=0.0 size=       0kB time=00:00:00.00 bitrate=N/A speed=   0x    frame=   46 fps= 19 q=64.0 size=       1kB time=00:00:00.06 bitrate=  96.3kbits/s speed=0.025x    frame=   57 fps= 19 q=67.0 size=       1kB time=00:00:00.28 bitrate=  20.9kbits/s speed=0.0954x    frame=   66 fps= 18 q=67.0 size=       1kB time=00:00:00.46 bitrate=  12.7kbits/s speed=0.127x    frame=   76 fps= 18 q=67.0 size=       1kB time=00:00:00.66 bitrate=   8.9kbits/s speed=0.16x    frame=   86 fps= 18 q=67.0 size=       1kB time=00:00:00.86 bitrate=   6.8kbits/s speed=0.178x    frame=   98 fps= 18 q=66.0 size=       1kB time=00:00:01.10 bitrate=   5.3kbits/s speed=0.198x    frame=  110 fps= 18 q=65.0 size=       1kB time=00:00:01.34 bitrate=   4.4kbits/s speed=0.214x    frame=  121 fps= 18 q=65.0 size=       1kB time=00:00:01.56 bitrate=   3.8kbits/s speed=0.231x    frame=  130 fps= 17 q=64.0 size=       1kB time=00:00:01.74 bitrate=   3.4kbits/s speed=0.233x    frame=  141 fps= 18 q=65.0 size=       1kB time=00:00:01.96 bitrate=   3.0kbits/s speed=0.246x    frame=  150 fps= 17 q=65.0 size=       1kB time=00:00:02.14 bitrate=   2.7kbits/s speed=0.247x    frame=  161 fps= 18 q=65.0 size=       1kB time=00:00:02.36 bitrate=   2.5kbits/s speed=0.258x    frame=  170 fps= 17 q=65.0 size=       1kB time=00:00:02.54 bitrate=   2.3kbits/s speed=0.258x    frame=  181 fps= 17 q=65.0 size=       1kB time=00:00:02.76 bitrate=   2.1kbits/s speed=0.267x    frame=  190 fps= 17 q=65.0 size=       1kB time=00:00:02.94 bitrate=   2.0kbits/s speed=0.266x    frame=  201 fps= 17 q=65.0 size=       1kB time=00:00:03.16 bitrate=   1.9kbits/s speed=0.274x    frame=  210 fps= 17 q=65.0 size=       1kB time=00:00:03.34 bitrate=   1.8kbits/s speed=0.273x    frame=  221 fps= 17 q=65.0 size=       1kB time=00:00:03.56 bitrate=   1.6kbits/s speed=0.279x    frame=  230 fps= 17 q=65.0 size=       1kB time=00:00:03.74 bitrate=   1.6kbits/s speed=0.278x    frame=  241 fps= 17 q=65.0 size=       1kB time=00:00:03.96 bitrate=   1.5kbits/s speed=0.284x    frame=  250 fps= 17 q=65.0 size=       1kB time=00:00:04.14 bitrate=   1.4kbits/s speed=0.283x    frame=  252 fps= 16 q=65.0 size=       1kB time=00:00:04.18 bitrate=   1.4kbits/s speed=0.27x    frame=  254 fps= 16 q=65.0 size=       1kB time=00:00:04.22 bitrate=   1.4kbits/s speed=0.262x    frame=  256 fps= 15 q=65.0 size=       1kB time=00:00:04.26 bitrate=   1.4kbits/s speed=0.255x    frame=  261 fps= 15 q=65.0 size=       1kB time=00:00:04.36 bitrate=   1.3kbits/s speed=0.252x    frame=  266 fps= 15 q=65.0 size=       1kB time=00:00:04.46 bitrate=   1.3kbits/s speed=0.249x    frame=  271 fps= 15 q=66.0 size=       1kB time=00:00:04.56 bitrate=   1.3kbits/s speed=0.247x    frame=  276 fps= 14 q=66.0 size=       1kB time=00:00:04.66 bitrate=   1.3kbits/s speed=0.244x    frame=  281 fps= 14 q=66.0 size=       1kB time=00:00:04.76 bitrate=   1.2kbits/s speed=0.242x    frame=  286 fps= 14 q=67.0 size=       1kB time=00:00:04.86 bitrate=   1.2kbits/s speed=0.24x    frame=  295 fps= 14 q=67.0 size=     338kB time=00:00:05.04 bitrate= 549.0kbits/s speed=0.243x    frame=  305 fps= 14 q=67.0 size=     338kB time=00:00:05.24 bitrate= 528.0kbits/s speed=0.246x    frame=  315 fps= 14 q=67.0 size=     338kB time=00:00:05.44 bitrate= 508.6kbits/s speed=0.247x    frame=  325 fps= 14 q=67.0 size=     338kB time=00:00:05.64 bitrate= 490.6kbits/s speed=0.251x    frame=  335 fps= 14 q=67.0 size=     338kB time=00:00:05.84 bitrate= 473.8kbits/s speed=0.252x    frame=  346 fps= 15 q=67.0 size=     338kB time=00:00:06.06 bitrate= 456.6kbits/s speed=0.256x    frame=  355 fps= 15 q=67.0 size=     338kB time=00:00:06.24 bitrate= 443.4kbits/s speed=0.256x    frame=  366 fps= 15 q=67.0 size=     338kB time=00:00:06.46 bitrate= 428.3kbits/s speed=0.26x    frame=  375 fps= 15 q=67.0 size=     338kB time=00:00:06.64 bitrate= 416.7kbits/s speed=0.259x    frame=  386 fps= 15 q=67.0 size=     338kB time=00:00:06.86 bitrate= 403.4kbits/s speed=0.263x    frame=  395 fps= 15 q=67.0 size=     338kB time=00:00:07.04 bitrate= 393.0kbits/s speed=0.263x    frame=  406 fps= 15 q=67.0 size=     338kB time=00:00:07.26 bitrate= 381.1kbits/s speed=0.266x    frame=  415 fps= 15 q=67.0 size=     338kB time=00:00:07.44 bitrate= 371.9kbits/s speed=0.266x    frame=  426 fps= 15 q=67.0 size=     338kB time=00:00:07.66 bitrate= 361.2kbits/s speed=0.269x    frame=  435 fps= 15 q=67.0 size=     338kB time=00:00:07.84 bitrate= 352.9kbits/s speed=0.269x    frame=  446 fps= 15 q=67.0 size=     338kB time=00:00:08.06 bitrate= 343.3kbits/s speed=0.271x    frame=  455 fps= 15 q=67.0 size=     338kB time=00:00:08.24 bitrate= 335.8kbits/s speed=0.271x    frame=  466 fps= 15 q=67.0 size=     338kB time=00:00:08.46 bitrate= 327.1kbits/s speed=0.274x    frame=  475 fps= 15 q=66.0 size=     338kB time=00:00:08.64 bitrate= 320.3kbits/s speed=0.273x    frame=  486 fps= 15 q=66.0 size=     338kB time=00:00:08.86 bitrate= 312.3kbits/s speed=0.276x    frame=  493 fps= 15 q=66.0 size=     338kB time=00:00:09.00 bitrate= 307.5kbits/s speed=0.269x    frame=  495 fps= 15 q=66.0 size=     338kB time=00:00:09.04 bitrate= 306.1kbits/s speed=0.266x    frame=  497 fps= 14 q=66.0 size=     338kB time=00:00:09.08 bitrate= 304.8kbits/s speed=0.262x    frame=  500 fps= 14 q=-1.0 Lsize=     645kB time=00:00:09.94 bitrate= 531.7kbits/s speed=0.273x    
video:641kB audio:0kB subtitle:0kB other streams:0kB global headers:0kB muxing overhead: 0.664392%
bench: utime=82.312s
bench: maxrss=1598112kB
[libx264 @ 0x30e2120] frame I:3     Avg QP:51.00  size: 11036
[libx264 @ 0x30e2120] frame P:183   Avg QP:51.00  size:  2703
[libx264 @ 0x30e2120] frame B:314   Avg QP:51.00  size:   407
[libx264 @ 0x30e2120] consecutive B-frames: 16.0%  0.8%  0.0% 83.2%
[libx264 @ 0x30e2120] mb I  I16..4: 35.1% 64.9%  0.0%
[libx264 @ 0x30e2120] mb P  I16..4:  5.6%  0.4%  0.0%  P16..4:  0.9%  0.0%  3.8%  0.0%  0.0%    skip:89.3%
[libx264 @ 0x30e2120] mb B  I16..4:  0.0%  0.0%  0.0%  B16..8:  0.4%  0.0%  0.0%  direct: 0.0%  skip:99.6%  L0:42.0% L1:58.0% BI: 0.0%
[libx264 @ 0x30e2120] final ratefactor: 58.50
[libx264 @ 0x30e2120] 8x8 transform intra:19.4% inter:100.0%
[libx264 @ 0x30e2120] coded y,uvDC,uvAC intra: 0.3% 1.9% 0.0% inter: 0.0% 0.0% 0.0%
[libx264 @ 0x30e2120] i16 v,h,dc,p: 89% 10%  1%  0%
[libx264 @ 0x30e2120] i8 v,h,dc,ddl,ddr,vr,hd,vl,hu: 13%  6% 80%  0%  0%  0%  0%  0%  0%
[libx264 @ 0x30e2120] i8c dc,h,v,p: 100%  0%  0%  0%
[libx264 @ 0x30e2120] Weighted P-Frames: Y:0.5% UV:0.0%
[libx264 @ 0x30e2120] ref P L0: 89.2% 10.8%
[libx264 @ 0x30e2120] ref B L0: 65.3% 34.7%
[libx264 @ 0x30e2120] ref B L1: 78.3% 21.7%
[libx264 @ 0x30e2120] kb/s:524.56
